<svg width="17" height="16" viewBox="0 0 17 16" fill="none" xmlns="http://www.w3.org/2000/svg">
<path d="M8.66034 3.09333C10.1626 3.09333 11.1759 3.74222 11.7537 4.28444L14.0114 2.08C12.6248 0.791111 10.8203 0 8.66034 0C5.53145 0 2.82923 1.79556 1.51367 4.40889L4.10034 6.41778C4.74923 4.48889 6.54478 3.09333 8.66034 3.09333Z" fill="#EA4335"/>
<path d="M16.3402 8.17779C16.3402 7.52001 16.2868 7.04001 16.1713 6.54224H8.66016V9.51113H13.069C12.9802 10.2489 12.5002 11.36 11.4335 12.1067L13.9579 14.0622C15.469 12.6667 16.3402 10.6133 16.3402 8.17779Z" fill="#4285F4"/>
<path d="M4.10905 9.58227C3.94016 9.08449 3.84238 8.55116 3.84238 8.00005C3.84238 7.44894 3.94016 6.9156 4.10016 6.41782L1.51349 4.40894C0.971267 5.49338 0.660156 6.71116 0.660156 8.00005C0.660156 9.28894 0.971267 10.5067 1.51349 11.5912L4.10905 9.58227Z" fill="#FBBC05"/>
<path d="M8.66024 16.0001C10.8202 16.0001 12.6336 15.2889 13.958 14.0623L11.4336 12.1067C10.758 12.5778 9.85135 12.9067 8.66024 12.9067C6.54468 12.9067 4.74913 11.5112 4.10913 9.58228L1.52246 11.5912C2.83802 14.2045 5.53135 16.0001 8.66024 16.0001Z" fill="#34A853"/>
</svg>
